<?xml version="1.0" encoding="UTF-8"?><svg id="a" xmlns="http://www.w3.org/2000/svg" viewBox="0 0 200 200"><defs><style>.b{fill:#e5e5e5;}.b,.c,.d{stroke-width:0px;}.c{fill:#fff;}.d{fill:#1888fa;}</style></defs><rect class="c" x="6.2" y="6.2" width="187.5" height="187.5" rx="18.8" ry="18.8"/><path class="b" d="M175,12.5c6.9,0,12.5,5.6,12.5,12.5v150c0,6.9-5.6,12.5-12.5,12.5H25c-6.9,0-12.5-5.6-12.5-12.5V25c0-6.9,5.6-12.5,12.5-12.5h150M175,0H25C11.2,0,0,11.2,0,25v150c0,13.8,11.2,25,25,25h150c13.8,0,25-11.2,25-25V25c0-13.8-11.2-25-25-25h0Z"/><path class="d" d="M90.7,168.1v-51.1L44.4,41.2l14.4-8.4,40.3,67.4,41.1-68.2,15.4,9.2-46.7,75.8v51.1h-18.2Z"/></svg>